# AST/ASF file generated using VICON BodyLanguage
# -----------------------------------------------
:version 1.10
:name VICON
:units
  mass 1.0
  length 0.45
  angle deg
:documentation
   .ast/.asf automatically generated from VICON data using
   VICON BodyBuilder and BodyLanguage model FoxedUp or BRILLIANT.MOD
:root
   order TX TY TZ RX RY RZ
   axis XYZ
   position 0 0 0  
   orientation 0 0 0 
:bonedata
  begin
     id 1 
     name lhipjoint
     direction 0.702568 -0.596508 0.388042 
     length 2.56661 
     axis 0 0 0  XYZ
  end
  begin
     id 2 
     name lfemur
     direction 0.34202 -0.939693 0  
     length 6.58374  
     axis 0 0 20  XYZ
    dof rx ry rz
    limits (-160.0 20.0)
           (-70.0 70.0)
           (-60.0 70.0)
  end
  begin
     id 3 
     name ltibia
     direction 0.34202 -0.939693 0   
     length 6.62538   
     axis 0 0 20   XYZ
    dof rx
    limits (-10.0 170.0)
  end
  begin
     id 4 
     name lfoot
     direction 0.10455 -0.287249 0.952133   
     length 2.26699   
     axis -90 7.62852e-016 20   XYZ
    dof rx rz
    limits (-45.0 90.0)
           (-70.0 20.0)
  end
  begin
     id 5 
     name ltoes
     direction 1.53572e-011 -4.22322e-011 1   
     length 1.12949   
     axis -90 7.62852e-016 20   XYZ
    dof rx
    limits (-90.0 20.0)
  end
  begin
     id 6 
     name rhipjoint
     direction -0.728055 -0.574632 0.373811   
     length 2.66432  
     axis 0 0 0  XYZ 
  end
  begin
     id 7 
     name rfemur
     direction -0.34202 -0.939693 0   
     length 6.66732   
     axis 0 0 -20   XYZ
    dof rx ry rz
    limits (-160.0 20.0)
           (-70.0 70.0)
           (-70.0 60.0)
  end
  begin
     id 8 
     name rtibia
     direction -0.34202 -0.939693 0   
     length 6.59288   
     axis 0 0 -20   XYZ
    dof rx
    limits (-10.0 170.0)
 end
 begin
     id 9 
     name rfoot
     direction -0.119193 -0.327479 0.93731   
     length 2.38061  
     axis -90 -7.62852e-016 -20   XYZ
    dof rx rz
    limits (-45.0 90.0)
           (-20.0 70.0)
  end
  begin
     id 10 
     name rtoes
     direction -1.53547e-011 -4.21827e-011 1   
     length 1.17899   
     axis -90 -7.62852e-016 -20   XYZ
    dof rx
    limits (-90.0 20.0)
  end
  begin
     id 11 
     name lowerback
     direction -0.000416114 0.999912 -0.0132284   
     length 2.12109   
     axis 0 0 0   XYZ
    dof rx ry rz
    limits (-20.0 45.0)
           (-30.0 30.0)
           (-30.0 30.0)
  end
  begin
     id 12 
     name upperback
     direction -0.00136371 0.99809 0.0617608   
     length 2.10067   
     axis 0 0 0   XYZ
    dof rx ry rz
    limits (-20.0 45.0)
           (-30.0 30.0)
           (-30.0 30.0)
  end
  begin
     id 13 
     name thorax
     direction -3.43026e-005 0.997776 0.0666515   
     length 2.10618   
     axis 0 0 0   XYZ
    dof rx ry rz
    limits (-20.0 45.0)
           (-30.0 30.0)
           (-30.0 30.0)
  end
  begin
     id 14 
     name lowerneck
     direction 0.0398646 0.998418 0.0396592   
     length 1.83817   
     axis 0 0 0   XYZ
    dof rx ry rz
    limits (-20.0 45.0)
           (-30.0 30.0)
           (-30.0 30.0)
  end
  begin
     id 15 
     name upperneck
     direction -0.0367268 0.961527 -0.272244   
     length 1.81975   
     axis 0 0 0   XYZ
    dof rx ry rz
    limits (-20.0 45.0)
           (-30.0 30.0)
           (-30.0 30.0)
  end
  begin
     id 16
     name head
     direction -0.0182665 0.99536 -0.0944669  
     length 1.86026  
     axis 0 0 0   XYZ
    dof rx ry rz
    limits (-20.0 45.0)
           (-30.0 30.0)
           (-30.0 30.0)
  end
  begin
     id 17 
     name lclavicle
     direction 0.924239 0.361045 0.124212  
     length 3.26878  
     axis 0 0 0   XYZ
    dof ry rz
    limits (-20.0 10.0)
           (0.0 20.0)
  end
  begin
     id 18 
     name lhumerus
     direction 1 -4.48968e-011 -2.56583e-027   
     length 4.58538   
     axis 180 -30 -90   XYZ
    dof rx ry rz
    limits (-60.0 90.0)
           (-90.0 90.0)
           (-90.0 90.0)
  end
  begin
     id 19
     name lradius
     direction 1 -4.4898e-011 -5.50375e-027   
     length 2.68935   
     axis 180 -30 -90   XYZ
    dof rx
    limits (-10.0 170.0)
  end
  begin
     id 20
     name lwrist
     direction 1 -4.48939e-011 -1.48955e-026   
     length 1.34468   
     axis 9.0955e-015 90 90   XYZ
    dof ry
    limits (-180.0 0.0)
 end
  begin
     id 21 
     name lhand
     direction 1 -4.48936e-011 -2.97907e-026   
     length 0.585058   
     axis 1.90115e-014 90 90   XYZ
    dof rx rz
    limits (-90.0 90.0)
           (-45.0 45.0)
  end
  begin
     id 22 
     name lfingers
     direction 1 -4.49082e-011 -5.96235e-026   
     length 0.471689   
     axis 3.80223e-014 90 90   XYZ
    dof rx
    limits (0.0 90.0)
  end
  begin
     id 23
     name lthumb
     direction 0.707107 -6.3489e-011 0.707107   
     length 0.677253   
     axis -90 45 -3.84942e-014   XYZ
    dof rx rz
    limits (-45.0 45.0)
           (-45.0 45.0)
  end
  begin
     id 24 
     name rclavicle
     direction -0.923098 0.371783 0.0983239   
     length 3.19656  
     axis 0 0 0   XYZ 
    dof ry rz
    limits (-10.0 20.0)
           (-20.0 0.0)
  end
  begin
     id 25 
     name rhumerus
     direction -1 -4.48976e-011 -2.5492e-027  
     length 4.4745   
     axis 180 30 90   XYZ
    dof rx ry rz
    limits (-90.0 60.0)
           (-90.0 90.0)
           (-90.0 90.0)
  end
  begin
     id 26 
     name rradius
     direction -1 -4.48941e-011 -4.36555e-027   
     length 2.93896   
     axis 180 30 90   XYZ
    dof rx
    limits (-10.0 170.0)
  end
  begin
     id 27 
     name rwrist
     direction -1 -4.49044e-011 -1.49032e-026   
     length 1.46948   
     axis 9.0955e-015 -90 -90   XYZ
    dof ry
    limits (-180.0 0.0)
  end
  begin
     id 28
     name rhand
     direction -1 -4.48826e-011 -2.97749e-026   
     length 0.405092   
     axis 1.90115e-014 -90 -90   XYZ
    dof rx rz
    limits (-90.0 90.0)
           (-45.0 45.0)
  end
  begin
     id 29
     name rfingers
     direction -1 -4.49209e-011 -5.96602e-026   
     length 0.326596   
     axis 3.80223e-014 -90 -90   XYZ
    dof rx
    limits (0.0 90.0)
  end
  begin
     id 30
     name rthumb
     direction -0.707107 -6.34776e-011 0.707107   
     length 0.468928   
     axis -90 -45 3.84942e-014   XYZ
    dof rx rz
    limits (-45.0 45.0)
           (-45.0 45.0)
  end
:hierarchy
  begin
    root lhipjoint rhipjoint lowerback
    lhipjoint lfemur
    lfemur ltibia
    ltibia lfoot
    lfoot ltoes
    rhipjoint rfemur
    rfemur rtibia
    rtibia rfoot
    rfoot rtoes
    lowerback upperback
    upperback thorax
    thorax lowerneck lclavicle rclavicle
    lowerneck upperneck
    upperneck head
    lclavicle lhumerus
    lhumerus lradius
    lradius lwrist
    lwrist lhand lthumb
    lhand lfingers
    rclavicle rhumerus
    rhumerus rradius
    rradius rwrist
    rwrist rhand rthumb
    rhand rfingers
  end

#!OML:ASF H:\Punching\Project 1\Capture day 1\Session 1\female.ASF
:FULLY-SPECIFIED
:DEGREES
419
root 2.04099 15.7739 6.78844 11.3442 -0.976551 -3.32496
lowerback -3.13587 0.736969 2.13216
upperback -6.44275 1.02633 1.04488
thorax -4.88408 0.439452 -0.123501
lowerneck -10.0273 1.79531 9.62903
upperneck 27.9105 1.76549 -4.55501
head 10.7473 1.2913 -3.08945
rclavicle 1.82932e-014 8.24335e-015
rhumerus -39.8498 27.2589 -103.279
rradius 49.3349
rwrist -2.6651
rhand -3.64895 -5.58445
rfingers 7.12502
rthumb 22.091 -34.3425
lclavicle 1.82932e-014 8.24335e-015
lhumerus -38.5966 -35.8541 103.564
lradius 61.7298
lwrist -0.502077
lhand -13.7432 14.2218
lfingers 7.12502
lthumb 12.3767 43.8354
rfemur -22.1215 -4.72476 18.2324
rtibia 36.4634
rfoot -15.8351 -9.10378
rtoes -10.272
lfemur -13.5196 -9.84962 -16.0667
ltibia 22.827
lfoot -20.9422 15.9118
ltoes -2.31147
420
root 2.0671 15.7657 6.77609 11.4373 -1.32635 -3.23159
lowerback -3.20802 0.715315 2.09529
upperback -6.46779 0.993111 0.997785
thorax -4.86976 0.423021 -0.15042
lowerneck -10.0743 1.99562 9.73621
upperneck 27.7253 2.08264 -4.77577
head 10.7165 1.41747 -3.14632
rclavicle 1.57479e-014 -4.8578e-015
rhumerus -40.2084 25.593 -103.127
rradius 47.4141
rwrist -1.85345
rhand -4.14649 -5.46305
rfingers 7.12502
rthumb 21.6133 -34.2768
lclavicle 1.57479e-014 -4.8578e-015
lhumerus -39.252 -34.923 103.86
lradius 59.4885
lwrist -1.20891
lhand -13.1298 14.7371
lfingers 7.12502
lthumb 12.9681 44.3141
rfemur -21.8101 -4.63245 18.5575
rtibia 36.4176
rfoot -16.4502 -9.55295
rtoes -9.83181
lfemur -13.7173 -9.67651 -16.297
ltibia 23.0791
lfoot -21.2703 15.9387
ltoes -2.29344
421
root 2.09192 15.7569 6.76243 11.5447 -1.65742 -3.15034
lowerback -3.28803 0.693809 2.08019
upperback -6.48148 0.959984 0.958917
thorax -4.83893 0.406027 -0.180892
lowerneck -10.1221 2.19507 9.84032
upperneck 27.4933 2.40131 -5.01034
head 10.6698 1.5418 -3.20624
rclavicle -4.82674e-015 -1.0138e-014
rhumerus -40.5838 24.0108 -102.88
rradius 45.8576
rwrist -1.53268
rhand -4.62507 -5.52627
rfingers 7.12502
rthumb 21.1536 -34.3922
lclavicle -4.82674e-015 -1.0138e-014
lhumerus -39.8818 -34.0137 104.145
lradius 57.2847
lwrist -1.86132
lhand -12.4827 15.1587
lfingers 7.12502
lthumb 13.5918 44.695
rfemur -21.4737 -4.48789 18.8675
rtibia 36.1468
rfoot -17.062 -10.2126
rtoes -9.34013
lfemur -13.9733 -9.47989 -16.5048
ltibia 23.3832
lfoot -21.5911 15.9426
ltoes -2.27562
422
root 2.11553 15.7477 6.74893 11.6748 -1.97869 -3.08502
lowerback -3.37717 0.668666 2.0813
upperback -6.49438 0.922128 0.931275
thorax -4.80225 0.386255 -0.208722
lowerneck -10.1649 2.39635 9.9476
upperneck 27.2214 2.72464 -5.26033
head 10.6093 1.66652 -3.27063
rclavicle 1.06746e-014 -3.3048e-015
rhumerus -41.0051 22.6026 -102.602
rradius 44.6701
rwrist -1.72022
rhand -5.06416 -5.74145
rfingers 7.12502
rthumb 20.7318 -34.654
lclavicle 1.06746e-014 -3.3048e-015
lhumerus -40.5051 -33.0915 104.408
lradius 55.1537
lwrist -2.39333
lhand -11.7838 15.4443
lfingers 7.12502
lthumb 14.2654 44.9344
rfemur -21.1239 -4.29468 19.164
rtibia 35.6564
rfoot -17.6641 -11.1119
rtoes -8.81387
lfemur -14.2848 -9.26196 -16.6878
ltibia 23.7325
lfoot -21.9124 15.9299
ltoes -2.25356
423
root 2.13829 15.7378 6.73678 11.7958 -2.31984 -3.02693
lowerback -3.46102 0.646113 2.08945
upperback -6.49588 0.887835 0.909245
thorax -4.75654 0.368201 -0.23481
lowerneck -10.2008 2.6015 10.0675
upperneck 26.9201 3.05361 -5.5262
head 10.5392 1.79335 -3.3414
rclavicle 1.20152e-014 -4.06887e-015
rhumerus -41.4696 21.4273 -102.333
rradius 43.8214
rwrist -2.34538
rhand -5.44365 -6.01035
rfingers 7.12502
rthumb 20.3671 -34.9623
lclavicle 1.20152e-014 -4.06887e-015
lhumerus -41.1369 -32.1559 104.65
lradius 53.1378
lwrist -2.75767
lhand -11.0725 15.5768
lfingers 7.12502
lthumb 14.9506 45.0172
rfemur -20.7395 -4.04402 19.4248
rtibia 34.9637
rfoot -18.2468 -12.2446
rtoes -8.23279
lfemur -14.5947 -9.01188 -16.8696
ltibia 24.1108
lfoot -22.2366 15.9172
ltoes -2.2352
424
root 2.16011 15.7275 6.72578 11.9006 -2.66626 -2.98112
lowerback -3.53087 0.622774 2.11278
upperback -6.49101 0.852876 0.89154
thorax -4.71202 0.349231 -0.265108
lowerneck -10.2165 2.80692 10.2024
upperneck 26.606 3.38223 -5.8009
head 10.4629 1.92115 -3.41753
rclavicle -1.09685e-014 3.59676e-015
rhumerus -41.9773 20.5027 -102.103
rradius 43.268
rwrist -3.25247
rhand -5.75265 -6.27558
rfingers 7.12502
rthumb 20.0701 -35.259
lclavicle -1.09685e-014 3.59676e-015
lhumerus -41.8064 -31.2189 104.88
lradius 51.2941
lwrist -2.94887
lhand -10.3758 15.5608
lfingers 7.12502
lthumb 15.6217 44.95
rfemur -20.3239 -3.72558 19.6479
rtibia 34.0918
rfoot -18.7822 -13.5768
rtoes -7.51426
lfemur -14.8874 -8.73915 -17.0431
ltibia 24.4946
lfoot -22.5457 15.9063
ltoes -2.23669
425
root 2.18137 15.7174 6.71621 11.9851 -2.98618 -2.9367
lowerback -3.58421 0.586101 2.15669
upperback -6.48054 0.800201 0.869033
thorax -4.6711 0.320315 -0.31201
lowerneck -10.2289 3.01616 10.3622
upperneck 26.3002 3.71097 -6.08001
head 10.3917 2.0517 -3.49943
rclavicle -1.21932e-014 -9.11925e-015
rhumerus -42.4993 19.8437 -101.94
rradius 42.9254
rwrist -4.27155
rhand -5.94382 -6.49522
rfingers 7.12502
rthumb 19.8864 -35.4978
lclavicle -1.21932e-014 -9.11925e-015
lhumerus -42.5336 -30.3159 105.109
lradius 49.6743
lwrist -2.9876
lhand -9.73209 15.44
lfingers 7.12502
lthumb 16.2416 44.7797
rfemur -19.8825 -3.35022 19.816
rtibia 33.082
rfoot -19.2055 -15.04
rtoes -6.73986
lfemur -15.1533 -8.47339 -17.2158
ltibia 24.8616
lfoot -22.821 15.8961
ltoes -2.24584
426
root 2.20207 15.7082 6.70791 12.0556 -3.26793 -2.89071
lowerback -3.6159 0.531878 2.22272
upperback -6.48 0.72453 0.83879
thorax -4.65327 0.278404 -0.379482
lowerneck -10.2193 3.22655 10.542
upperneck 26.0191 4.03643 -6.3507
head 10.3276 2.18482 -3.58249
rclavicle 2.38192e-015 8.63471e-015
rhumerus -43.0453 19.4375 -101.866
rradius 42.7228
rwrist -5.21783
rhand -6.04978 -6.61923
rfingers 7.12502
rthumb 19.7845 -35.6323
lclavicle 2.38192e-015 8.63471e-015
lhumerus -43.3568 -29.4552 105.354
lradius 48.3198
lwrist -2.96573
lhand -9.16175 15.2336
lfingers 7.12502
lthumb 16.7907 44.5276
rfemur -19.4359 -2.9081 19.9194
rtibia 31.9889
rfoot -19.4513 -16.5327
rtoes -5.95931
lfemur -15.3934 -8.22724 -17.3871
ltibia 25.1944
lfoot -23.0482 15.887
ltoes -2.25815
427
root 2.22196 15.7002 6.70089 12.1022 -3.51944 -2.85274
lowerback -3.61699 0.466043 2.32032
upperback -6.48551 0.633939 0.799509
thorax -4.6595 0.227046 -0.474194
lowerneck -10.2026 3.43489 10.7366
upperneck 25.7787 4.35149 -6.60157
head 10.2781 2.31784 -3.66284
rclavicle 9.10993e-015 -5.5287e-015
rhumerus -43.6016 19.2612 -101.892
rradius 42.601
rwrist -5.9622
rhand -6.09583 -6.65053
rfingers 7.12502
rthumb 19.7402 -35.6682
lclavicle 9.10993e-015 -5.5287e-015
lhumerus -44.2822 -28.6809 105.632
lradius 47.2358
lwrist -2.98725
lhand -8.6746 14.9631
lfingers 7.12502
lthumb 17.2596 44.2167
rfemur -18.9849 -2.37551 19.9629
rtibia 30.884
rfoot -19.4848 -17.9318
rtoes -5.21328
lfemur -15.5858 -7.99702 -17.547
ltibia 25.4788
lfoot -23.2262 15.8783
ltoes -2.2522
428
root 2.24087 15.6941 6.69492 12.1454 -3.7478 -2.82798
lowerback -3.60135 0.39241 2.44941
upperback -6.50327 0.533303 0.75255
thorax -4.68871 0.168636 -0.594515
lowerneck -10.1913 3.63911 10.9369
upperneck 25.5868 4.65193 -6.82255
head 10.2474 2.44872 -3.73588
rclavicle 2.63933e-015 1.81018e-014
rhumerus -44.1551 19.307 -102.032
rradius 42.5101
rwrist -6.45397
rhand -6.13821 -6.58466
rfingers 7.12502
rthumb 19.6995 -35.6065
lclavicle 2.63933e-015 1.81018e-014
lhumerus -45.2973 -27.9992 105.941
lradius 46.4066
lwrist -3.14396
lhand -8.24777 14.638
lfingers 7.12502
lthumb 17.6704 43.855
rfemur -18.5667 -1.76236 19.9538
rtibia 29.8424
rfoot -19.3152 -19.1235
rtoes -4.56292
lfemur -15.7489 -7.79083 -17.6859
ltibia 25.7088
lfoot -23.3498 15.8829
ltoes -2.22241
429
root 2.25874 15.6905 6.68971 12.1888 -3.96464 -2.82677
lowerback -3.57673 0.319379 2.61428
upperback -6.52497 0.433622 0.701701
thorax -4.72776 0.1087 -0.73883
lowerneck -10.2014 3.83528 11.1349
upperneck 25.4389 4.93157 -7.01106
head 10.2357 2.5736 -3.79985
rclavicle -9.65969e-016 3.65267e-015
rhumerus -44.6789 19.5514 -102.278
rradius 42.4272
rwrist -6.73742
rhand -6.19116 -6.45621
rfingers 7.12502
rthumb 19.6486 -35.4832
lclavicle -9.65969e-016 3.65267e-015
lhumerus -46.3629 -27.4059 106.266
lradius 45.7939
lwrist -3.55227
lhand -7.87076 14.2544
lfingers 7.12502
lthumb 18.0332 43.4384
rfemur -18.2007 -1.10275 19.9096
rtibia 28.9292
rfoot -19.0149 -20.0255
rtoes -4.03431
lfemur -15.8841 -7.61616 -17.7929
ltibia 25.8874
lfoot -23.4269 15.9155
ltoes -2.15994
430
root 2.27546 15.6892 6.68468 12.2288 -4.17543 -2.85719
lowerback -3.54211 0.25091 2.81309
upperback -6.54048 0.340362 0.6536
thorax -4.76666 0.0503986 -0.899248
lowerneck -10.2471 4.02219 11.3225
upperneck 25.3275 5.18891 -7.16778
head 10.242 2.69041 -3.85341
rclavicle 2.06053e-014 6.41081e-015
rhumerus -45.1429 19.9718 -102.615
rradius 42.3494
rwrist -6.91321
rhand -6.23245 -6.33605
rfingers 7.12502
rthumb 19.6089 -35.3671
lclavicle 2.06053e-014 6.41081e-015
lhumerus -47.4223 -26.8693 106.575
lradius 45.3582
lwrist -4.24181
lhand -7.5085 13.8188
lfingers 7.12502
lthumb 18.3817 42.9703
rfemur -17.8954 -0.445508 19.8516
rtibia 28.1833
rfoot -18.6848 -20.6093
rtoes -3.59144
lfemur -15.9927 -7.48062 -17.859
ltibia 26.0269
lfoot -23.4674 15.9848
ltoes -2.06384
431
root 2.29147 15.6897 6.67987 12.2611 -4.38527 -2.9209
lowerback -3.49955 0.1908 3.04315
upperback -6.53915 0.258529 0.611294
thorax -4.79286 -0.00327386 -1.07115
lowerneck -10.3457 4.19924 11.5009
upperneck 25.2448 5.42254 -7.30044
head 10.2667 2.79723 -3.89934
rclavicle 1.22377e-015 1.70458e-014
rhumerus -45.5157 20.5297 -103.011
rradius 42.2728
rwrist -7.08992
rhand -6.22129 -6.25065
rfingers 7.12502
rthumb 19.6196 -35.2806
lclavicle 1.22377e-015 1.70458e-014
lhumerus -48.413 -26.3451 106.824
lradius 45.0697
lwrist -5.15708
lhand -7.1522 13.3553
lfingers 7.12502
lthumb 18.7244 42.4741
rfemur -17.6572 0.14668 19.7944
rtibia 27.6128
rfoot -18.4034 -20.8976
rtoes -3.21516
lfemur -16.0776 -7.39216 -17.8856
ltibia 26.1492
lfoot -23.4887 16.1034
ltoes -1.93314
